<?xml version="1.0" encoding="UTF-8"?>
<svg version="1.1" viewBox="0 0 258.73 24" xmlns="http://www.w3.org/2000/svg">
<path d="m78.891 2.6836c-0.1875 0-0.39062 0.015625-0.60938 0.046875s-0.39062 0.10937-0.51562 0.23438c-1.125 1.3125-2.0312 2.7812-2.7188 4.4062s-1.4062 3.2188-2.1562 4.7813v0.60938c0 0.21875 0.0625 0.39062 0.1875 0.51562l0.28125 0.1875 0.84375-0.09375c0.625-1.125 1.2031-2.2656 1.7344-3.4219 0.53125-1.1563 1.0469-2.2969 1.5469-3.4219l0.375 0.1875 0.84375-0.09375c0.875 0.125 1.7812 0.20312 2.7188 0.23438s1.8438 0.20312 2.7188 0.51562c-1.125 2.0625-2.2188 4.1719-3.2812 6.3281s-2 4.3281-2.8125 6.5156l0.28125 0.75 0.28125 0.1875 0.84375-0.09375c0.875-1.875 1.7656-3.7656 2.6719-5.6719s1.8281-3.8281 2.7656-5.7656c0.25-0.4375 0.5-0.84375 0.75-1.2188 0.25-0.375 0.5625-0.71875 0.9375-1.0312l-0.09375-0.9375c-1.1875-0.6875-2.4531-1.0938-3.7969-1.2188s-2.6719-0.25-3.9844-0.375l0.65625-0.84375c0-0.25-0.01563-0.5-0.04687-0.75-0.03125-0.25-0.17188-0.4375-0.42188-0.5625zm70 0c-0.1875 0-0.39062 0.015625-0.60937 0.046875s-0.39063 0.10937-0.51563 0.23438c-1.125 1.3125-2.0312 2.7812-2.7187 4.4062s-1.4063 3.2188-2.1563 4.7813v0.60938c0 0.21875 0.0625 0.39062 0.1875 0.51562l0.28126 0.1875 0.84374-0.09375c0.625-1.125 1.2031-2.2656 1.7344-3.4219 0.53125-1.1563 1.0469-2.2969 1.5469-3.4219l0.375 0.1875 0.84374-0.09375c0.875 0.125 1.7813 0.20312 2.7188 0.23438s1.8437 0.20312 2.7187 0.51562c-1.125 2.0625-2.2187 4.1719-3.2812 6.3281s-2 4.3281-2.8125 6.5156l0.28124 0.75 0.28126 0.1875 0.84374-0.09375c0.875-1.875 1.7656-3.7656 2.6719-5.6719s1.8281-3.8281 2.7656-5.7656c0.25-0.4375 0.5-0.84375 0.75-1.2188 0.25-0.375 0.5625-0.71875 0.9375-1.0312l-0.0937-0.9375c-1.1875-0.6875-2.4531-1.0938-3.7969-1.2188s-2.6719-0.25-3.9844-0.375l0.65626-0.84375c0-0.25-0.0156-0.5-0.0469-0.75-0.0312-0.25-0.17188-0.4375-0.42188-0.5625zm35.797 0.1875c-0.25 0-0.46875 0.015625-0.65625 0.046875s-0.375 0.10937-0.5625 0.23438c-1.25 1.4375-2.3906 2.9219-3.4219 4.4531s-1.9531 3.1719-2.7656 4.9219v0.60938c0 0.21875 0.0625 0.39062 0.1875 0.51562l0.28125 0.1875h0.75c0.4375-0.4375 0.76563-0.92188 0.98438-1.4531s0.48437-1.0469 0.79687-1.5469l6.75 2.1562c-0.5625 1-1.0938 2.0156-1.5938 3.0469s-0.90625 2.1094-1.2188 3.2344h-0.1875l-0.28125 0.65625 0.28125 0.84375 0.28125 0.1875h0.5625c0.1875 0 0.34375-0.0625 0.46875-0.1875 1-2.4375 2.1719-4.8125 3.5156-7.125s2.4531-4.7188 3.3281-7.2188l-0.0937-1.3125c-1-0.5625-2.1094-0.875-3.3281-0.9375-1.2187-0.0625-2.4219-0.09375-3.6094-0.09375 0.0625-0.25 0.0625-0.48438 0-0.70312-0.0625-0.21875-0.21875-0.39063-0.46875-0.51562zm24.312 0.046875c-2.75 1.25-5.2969 2.8437-7.6406 4.7812-2.3438 1.9375-4.7344 3.8125-7.1719 5.625l-0.28125 0.65625 0.28125 0.75 0.65625 0.28125c1.375-0.9375 2.7188-1.9375 4.0312-3l3.9375-3.1875 0.0937 0.09375-0.28125 7.0313v4.0312l0.28125 0.65625 0.28125 0.1875c0.25 0.0625 0.48438 0.0625 0.70312 0 0.21876-0.0625 0.39063-0.21875 0.51563-0.46875v-4.2188l0.0937-0.09375v-3.75c0.125-0.8125 0.1875-1.6406 0.1875-2.4844 0-0.84375 0.0625-1.6719 0.1875-2.4844 0.75-0.625 1.5156-1.1719 2.2969-1.6406 0.78125-0.46875 1.5469-0.98438 2.2969-1.5469 0.0625-0.25 0.0625-0.48438 0-0.70312-0.0624-0.21875-0.21865-0.39062-0.46865-0.51562zm-116.94 0.044922c-0.30469 0.017578-0.57422 0.095703-0.80859 0.23633l-0.1875 0.28125c0 0.1875 0.01563 0.39062 0.04687 0.60938 0.03125 0.21875 0.10938 0.39062 0.23438 0.51562 1.5625 0.125 3.125 0.34375 4.6875 0.65625s3.0938 0.65625 4.5938 1.0312c0.25 0.0625 0.48436 0.0625 0.70311 0s0.39064-0.21875 0.51564-0.46875l-0.0937-0.9375c-1.3125-0.5-2.6563-0.85938-4.0313-1.0781-1.375-0.21875-2.75-0.48438-4.125-0.79688-0.375 0-0.78125-0.015625-1.2188-0.046875-0.10938-0.00781-0.21484-0.00781-0.31641-0.00195zm73.051 1.3145c-0.625 0.125-1.2813 0.1875-1.9688 0.1875s-1.3125 0.125-1.875 0.375l-0.28124 0.65625 0.28124 0.75 0.28126 0.1875 3.5625-0.375h4.2187c-1.375 2.1875-2.8594 4.2656-4.4531 6.2344s-3.0156 4.0781-4.2656 6.3281l0.28124 0.75 0.28126 0.1875h0.75c0.8125-1.1875 1.6094-2.3594 2.3906-3.5156s1.6406-2.2969 2.5781-3.4219l0.375 0.46875c1.125 1 2.1875 2.0781 3.1875 3.2344s2.0625 2.2031 3.1875 3.1406c0.25001 0.0625 0.48438 0.0625 0.70313 0s0.39063-0.21875 0.51563-0.46875v-0.75c-0.8125-0.6875-1.5781-1.4219-2.2969-2.2031s-1.4219-1.5781-2.1094-2.3906l-1.9687-1.7812-0.46876-0.75 3.9375-5.5313c0.0625-0.3125 0.0469-0.5625-0.0469-0.75-0.0937-0.1875-0.26563-0.375-0.51563-0.5625zm-56.406 0.046875-0.28124 0.1875-0.1875 0.28125 0.1875 1.0312 0.65624 0.28125h4.875c0.1875-0.0625 0.35938-0.125 0.51563-0.1875s0.29687-0.1875 0.42187-0.375c0.0625-0.25 0.0625-0.48438 0-0.70312s-0.21874-0.39062-0.46874-0.51562zm-87.984 0.32812-1.2188 0.375-0.1875 0.28125 0.1875 1.0312 0.65625 0.28125 0.65625-0.1875h9.0938l0.28125 2.3438c0.0625 1.4375 0.03125 2.875-0.09375 4.3125s-0.25 2.8438-0.375 4.2188l-4.2188-0.1875h-5.625l-0.5625 0.5625 0.1875 1.0312 0.28125 0.1875h5.7188l4.875 0.28125c0.375 0 0.71875-0.04687 1.0312-0.14062 0.3125-0.09375 0.5625-0.29688 0.75-0.60938l-0.09375-0.84375-0.5625-0.375 0.46875-5.0625c0-1.1875-0.01563-2.375-0.04687-3.5625-0.03125-1.1875-0.23438-2.3125-0.60938-3.375-0.1875-0.25-0.42188-0.375-0.70312-0.375s-0.54688-0.0625-0.79688-0.1875zm36 0-1.2188 0.375-0.1875 0.28125 0.1875 1.0312 0.65625 0.28125 0.65625-0.1875h9.0938l0.28125 2.3438c0.0625 1.4375 0.03125 2.875-0.09375 4.3125s-0.25 2.8438-0.375 4.2188l-4.2188-0.1875h-5.625l-0.5625 0.5625 0.1875 1.0312 0.28125 0.1875h5.7188l4.875 0.28125c0.375 0 0.71875-0.04687 1.0312-0.14062 0.3125-0.09375 0.5625-0.29688 0.75-0.60938l-0.09375-0.84375-0.5625-0.375 0.46875-5.0625c0-1.1875-0.01563-2.375-0.04687-3.5625-0.03125-1.1875-0.23438-2.3125-0.60938-3.375-0.1875-0.25-0.42188-0.375-0.70312-0.375s-0.54688-0.0625-0.79688-0.1875zm156.61 0.46875c-0.21874 0-0.39062 0.0625-0.51562 0.1875-0.25003 1.3125-0.40628 2.625-0.46875 3.9375-0.0625 1.3125-0.12503 2.625-0.1875 3.9375 0 0.875 0.0156 1.7656 0.0469 2.6719s0.20313 1.7656 0.51563 2.5781l0.28122 0.1875c0.25 0.0625 0.48438 0.0625 0.70312 0 0.21876-0.0625 0.39063-0.21875 0.51563-0.46875l-0.28125-3.0938c0.0625-1.4375 0.12503-2.8594 0.1875-4.2656 0.0625-1.4063 0.15625-2.7969 0.28125-4.1719v-0.84375c0-0.25-0.15625-0.46875-0.46875-0.65625zm7.3594 0.28125-1.0312 0.1875c-0.25 0.625-0.375 1.2969-0.375 2.0156s-0.0313 1.4219-0.0937 2.1094c0 1.25 0.0625 2.5 0.1875 3.75s0.34375 2.4688 0.65625 3.6562l0.46875 0.28125c1.4375-0.5625 2.9062-0.98438 4.4062-1.2656s2.9375-0.73438 4.3125-1.3594c0.0625-0.25 0.0625-0.48438 0-0.70312s-0.21875-0.39062-0.46875-0.51562c-1.25 0.25-2.4688 0.5-3.6562 0.75s-2.375 0.5625-3.5625 0.9375h-0.1875l-0.375-3.9375c0-0.75 0.0156-1.5156 0.0469-2.2969s0.10938-1.5469 0.23438-2.2969c0.0625-0.3125 0.0469-0.5625-0.0469-0.75-0.0937-0.1875-0.26562-0.375-0.51562-0.5625zm-217.92 0.22852c-0.5332-0.003418-1.0195 0.076172-1.457 0.24023l-0.28125 0.65625 0.28125 0.75c1.75 0.0625 3.5156 0.20312 5.2969 0.42188s3.5469 0.42188 5.2969 0.60938c0.1875-0.0625 0.35938-0.125 0.51562-0.1875s0.29688-0.1875 0.42188-0.375l-0.09375-0.84375c-1.25-0.5-2.5625-0.76562-3.9375-0.79688s-2.7188-0.17188-4.0312-0.42188c-0.5625 0-1.1562-0.015625-1.7812-0.046875-0.078125-0.0039063-0.1543-0.0053711-0.23047-0.0058594zm36 0c-0.5332-0.003418-1.0195 0.076172-1.457 0.24023l-0.28125 0.65625 0.28125 0.75c1.75 0.0625 3.5156 0.20312 5.2969 0.42188s3.5469 0.42188 5.2969 0.60938c0.1875-0.0625 0.35938-0.125 0.51562-0.1875s0.29688-0.1875 0.42188-0.375l-0.09375-0.84375c-1.25-0.5-2.5625-0.76562-3.9375-0.79688s-2.7188-0.17188-4.0312-0.42188c-0.5625 0-1.1562-0.015625-1.7812-0.046875-0.07813-0.00391-0.1543-0.00537-0.23047-0.00586zm145.45 0.24023h3.75l2.25 0.28125c-0.1875 0.9375-0.5 1.8281-0.9375 2.6719s-0.875 1.6719-1.3125 2.4844v0.1875l-6.75-2.1563c0.25-0.5625 0.54688-1.1094 0.89063-1.6406s0.73437-1.0469 1.1719-1.5469zm-51.656 0.89062-1.0312 0.1875c-0.25002 0.375-0.35939 0.79687-0.32813 1.2656 0.0312 0.46875 0.0156 0.92188-0.0469 1.3594v4.5l0.28125 0.65625 0.28125 0.1875c0.25 0.0625 0.48438 0.0625 0.70313 0s0.39062-0.21875 0.51562-0.46875v-4.875l0.0937-0.09375c-0.0625-0.5-0.0625-1 0-1.5s-0.0937-0.90625-0.46875-1.2188zm-3.1875 0.375-1.0312 0.1875c-0.1875 0.25-0.28125 0.54687-0.28125 0.89062 0 0.34375-0.0313 0.67188-0.0937 0.98438v4.6875l-0.0937 0.09375 0.28125 0.9375 0.28125 0.1875 0.84375-0.09375c0.25-0.125 0.375-0.29688 0.375-0.51562s0.0313-0.42188 0.0937-0.60938v-4.6875l0.0937-0.09375c0-0.375 0.0156-0.75 0.0469-1.125s-0.14062-0.65625-0.51562-0.84375zm-36.531 0.75c-0.4375 0.125-0.875 0.1875-1.3125 0.1875s-0.84375 0.0625-1.2188 0.1875l-0.28125 0.375v0.84375l0.5625 0.5625c0.375 0 0.75-0.0625 1.125-0.1875 0.375-0.125 0.75-0.1875 1.125-0.1875h7.4062l1.0312 0.09375-4.5 10.219 0.28125 0.75 0.28125 0.1875 0.84375-0.09375c1-1.75 1.9062-3.5625 2.7188-5.4375s1.6562-3.7188 2.5312-5.5313l-0.0937-1.125c-0.4375-0.375-0.92188-0.59375-1.4531-0.65625s-1.0781-0.125-1.6406-0.1875zm144.83 0.03125c-0.29444-0.00879-0.55665 0.074219-0.78516 0.25-0.30469 0.23438-0.62109 0.44531-0.94922 0.63281-0.89063 0.79688-1.5352 1.7227-1.9336 2.7773-0.39844 1.0547-0.64453 2.1445-0.73829 3.2695 0.0469 0.79688 0.15235 1.5586 0.31641 2.2852 0.16406 0.72656 0.52735 1.3711 1.0898 1.9336 0.375 0.32813 0.77343 0.59766 1.1953 0.80859 0.42187 0.21094 0.86719 0.36328 1.3359 0.45703 0.14063-0.04688 0.26954-0.09375 0.38672-0.14062 0.11719-0.04687 0.22266-0.14062 0.31641-0.28125l-0.0703-0.63281c-0.28126-0.23438-0.58594-0.38672-0.91406-0.45703-0.32813-0.07031-0.63281-0.19922-0.91407-0.38672-0.46874-0.42188-0.80859-0.89063-1.0195-1.4062-0.21095-0.51563-0.33985-1.0781-0.38672-1.6875 0.0469-0.89063 0.19922-1.7461 0.45703-2.5664 0.25782-0.82031 0.64453-1.6055 1.1602-2.3555 0.28125-0.375 0.60937-0.66797 0.98437-0.87891s0.75-0.43359 1.125-0.66797c0.0469-0.1875 0.0469-0.36328 0-0.52734s-0.16406-0.29297-0.35156-0.38672c-0.10547-0.023437-0.20654-0.036133-0.30468-0.039062zm16.652 0c-0.0982 0.00293-0.19922 0.015625-0.30469 0.039062-0.18751 0.09375-0.30469 0.22266-0.35156 0.38672-0.0469 0.16406-0.0469 0.33984 0 0.52734 0.375 0.23438 0.75 0.45703 1.125 0.66797s0.70313 0.50391 0.98437 0.87891c0.51563 0.75 0.90235 1.5352 1.1602 2.3555 0.25782 0.82031 0.41016 1.6758 0.45703 2.5664-0.0469 0.60937-0.17578 1.1719-0.38672 1.6875-0.21093 0.51562-0.55078 0.98437-1.0195 1.4062-0.28125 0.1875-0.58593 0.31641-0.91406 0.38672-0.32813 0.07031-0.63282 0.22266-0.91406 0.45703l-0.0703 0.63281c0.0938 0.14063 0.19922 0.23438 0.31641 0.28125 0.11719 0.04688 0.24609 0.09375 0.38672 0.14062 0.46875-0.09375 0.91406-0.24609 1.3359-0.45703 0.42187-0.21094 0.82031-0.48047 1.1953-0.80859 0.5625-0.5625 0.92578-1.207 1.0898-1.9336 0.16408-0.72656 0.26954-1.4883 0.31641-2.2852-0.0937-1.125-0.33985-2.2148-0.73828-3.2695-0.39844-1.0547-1.043-1.9805-1.9336-2.7773-0.32812-0.1875-0.64452-0.39844-0.94921-0.63281-0.22852-0.17578-0.49073-0.25879-0.78516-0.25zm-115.2 0.71875-1.0312 0.1875c-0.9375 1.8125-1.7969 3.6563-2.5781 5.5313-0.78124 1.875-1.6094 3.75-2.4844 5.625l0.1875 1.0312 0.28125 0.1875 0.84375-0.09375c1-1.8125 1.8906-3.6562 2.6719-5.5312 0.78126-1.875 1.6406-3.75 2.5781-5.625 0-0.25-0.0156-0.5-0.0469-0.75-0.0312-0.25-0.17188-0.4375-0.42188-0.5625zm-25.734 0.09375c-0.9375 0.0625-1.8906 0.15625-2.8594 0.28125s-1.9219 0.28125-2.8594 0.46875l-0.1875 0.28125 0.1875 1.0313 0.65624 0.28125c0.9375-0.125 1.8906-0.23438 2.8594-0.32812s1.8594-0.35938 2.6719-0.79688c0.0625-0.25 0.0625-0.48438 0-0.70312s-0.21876-0.39062-0.46876-0.51562zm10.031 1.0312c-2.375 1.0625-4.7188 2.2656-7.0313 3.6094s-4.5312 2.8281-6.6562 4.4531l-0.28126 0.65625 0.28126 0.84375 0.28124 0.1875h0.75l0.5625-0.65625c2-1.5 4.0781-2.8594 6.2344-4.0781s4.2656-2.4844 6.3281-3.7969c0.0625-0.25 0.0625-0.48438 0-0.70312s-0.21874-0.39063-0.46874-0.51563zm-122.86 6.2344-0.5625 0.5625v0.75l0.5625 0.5625 0.84375-0.09375 2.7188 0.1875 0.75-0.09375c1.3125 0 2.625 0.03125 3.9375 0.09375s2.625 0.15625 3.9375 0.28125h1.5c0.5 0 0.90625-0.1875 1.2188-0.5625l-0.09375-0.84375c-1.125-0.25-2.3125-0.42188-3.5625-0.51562s-2.4688-0.17188-3.6562-0.23438l-3.375 0.09375-2.3438-0.1875zm36 0-0.5625 0.5625v0.75l0.5625 0.5625 0.84375-0.09375 2.7188 0.1875 0.75-0.09375c1.3125 0 2.625 0.03125 3.9375 0.09375s2.625 0.15625 3.9375 0.28125h1.5c0.5 0 0.90625-0.1875 1.2188-0.5625l-0.09375-0.84375c-1.125-0.25-2.3125-0.42188-3.5625-0.51562s-2.4688-0.17188-3.6562-0.23438l-3.375 0.09375-2.3438-0.1875z" fill="#FFFFFF" />
<path d="m240.52 21.316-0.21093-0.14062-0.21094-0.63281q0.63281-3.5156 1.7578-6.9258 1.125-3.4102 3.2344-6.3633 0.77343-0.35156 1.7226-0.38672 0.94922-0.035156 1.9336-0.035156 0.42187 0.14062 0.84375 0.31641 0.42187 0.17578 0.70312 0.59766 0.42188 0.49219 0.59766 1.0547t0.10547 1.1953q-0.0703 0.49219-0.35157 0.91406-0.28125 0.42188-0.70312 0.77344-0.42188 0.35156-0.91406 0.5625-0.49219 0.21094-0.98438 0.42188 0.77344 0.84375 0.87891 1.9688t0.0352 2.25q-0.14062 0.42188-0.35156 0.80859-0.21094 0.38672-0.63281 0.73828-0.42188 0.21094-0.87891 0.28125-0.45703 0.07031-0.94922 0.07031-0.70312-0.14062-1.3359-0.28125-0.63282-0.14062-1.125-0.70312-0.21094-0.21094-0.28125-0.52734-0.0703-0.31641-0.14063-0.59766l0.21094-0.49219 0.77344-0.14062q0.28125 0.21094 0.35156 0.52734 0.0703 0.31641 0.28125 0.52734 0.49219 0.21094 0.98437 0.28125 0.49219 0.07031 1.0547 0.07031l0.35156-0.21094q0.35157-0.49219 0.35157-1.1602t0-1.3008q-0.14063-0.35156-0.2461-0.70312-0.10547-0.35156-0.45703-0.63281l-1.6875-0.49219-0.14062-0.77344 0.14062-0.21094q1.0547-0.21094 2.1797-0.49219t1.9688-1.125q0.14062-0.21094 0.21094-0.49219 0.0703-0.28125 0.0703-0.5625l-0.63281-0.91406q-0.49219-0.28125-1.125-0.24609-0.63282 0.035156-1.2656 0.035156-0.21094 0.070312-0.42187 0.14062-0.21094 0.070312-0.35157 0.28125-1.8984 2.8828-2.8828 6.1172-0.98437 3.2344-1.8281 6.5391z" fill="#056DFF"/>
</svg>
