<?xml version="1.0" encoding="UTF-8"?>
<svg version="1.1" viewBox="0 0 260.27 24" xmlns="http://www.w3.org/2000/svg">
<path d="m74.219 2.0156-0.5625 0.5625 0.1875 1.0312 0.46875 0.28125 0.84375-0.09375 0.75 0.1875-0.09375 1.3125c-0.6875 0-1.3906-0.015625-2.1094-0.046875s-1.3594 0.078125-1.9219 0.32812l-0.28125 0.65625 0.28125 0.75 0.28125 0.1875 0.84375-0.09375h2.8125v0.9375c-0.375-0.0625-0.75-0.0625-1.125 0s-0.71875 0.21875-1.0312 0.46875c-0.3125 0.5-0.51562 1.0312-0.60938 1.5938s-0.17188 1.125-0.23438 1.6875c0 0.5625 0.0625 1.125 0.1875 1.6875s0.3125 1.0625 0.5625 1.5c0.25 0.25 0.53125 0.45312 0.84375 0.60938s0.65625 0.26562 1.0312 0.32812v0.9375h-1.2656c-0.40625 0-0.76562 0.125-1.0781 0.375l-0.28125 0.65625 0.28125 0.84375 0.28125 0.1875h0.5625c0.1875 0 0.34375-0.09375 0.46875-0.28125h1.125l0.1875 1.2188v0.1875c-0.5 0-0.96875 0.03125-1.4062 0.09375s-0.875 0.15625-1.3125 0.28125l-0.1875 0.28125 0.1875 1.0312 0.65625 0.28125c1.5-0.1875 3.0312-0.3125 4.5938-0.375s3.0312-0.34375 4.4062-0.84375c0.0625-0.25 0.0625-0.48438 0-0.70312s-0.21875-0.39062-0.46875-0.51562l-4.3125 0.28125h-0.375l-0.1875-0.84375v-0.375h1.4531c0.46875 0 0.85938-0.1875 1.1719-0.5625l-0.09375-0.84375c-0.3125-0.3125-0.71875-0.4375-1.2188-0.375s-0.96875 0.0625-1.4062 0l0.09375-0.84375 1.5-0.5625c0.5-0.1875 0.96875-0.4375 1.4062-0.75 0.25-0.25 0.5-0.48438 0.75-0.70312s0.40625-0.48438 0.46875-0.79688c0.1875-0.8125 0.125-1.5-0.1875-2.0625s-0.75-1.0938-1.3125-1.5938c-0.375-0.375-0.76562-0.65625-1.1719-0.84375s-0.82812-0.375-1.2656-0.5625l0.09375-1.0312 4.7812 0.375c0.1875-0.0625 0.35938-0.125 0.51562-0.1875s0.29688-0.1875 0.42188-0.375l-0.09375-0.9375c-0.875-0.25-1.7812-0.40625-2.7188-0.46875l-2.8125-0.1875 0.09375-1.2188 2.5312 0.1875c0.25 0.0625 0.48438 0.0625 0.70312 0s0.39062-0.21875 0.51562-0.46875l-0.09375-0.84375c-0.8125-0.4375-1.7344-0.64062-2.7656-0.60938s-1.9844-0.078125-2.8594-0.32812zm47.672 0.75c-0.1875 0-0.39062 0.015625-0.60937 0.046875s-0.39063 0.10938-0.51563 0.23438c-1.125 1.3125-2.0312 2.7812-2.7187 4.4062s-1.4063 3.2188-2.1563 4.7812v0.60938c0 0.21875 0.0625 0.39062 0.1875 0.51562l0.28126 0.1875 0.84374-0.09375c0.625-1.125 1.2031-2.2656 1.7344-3.4219s1.0469-2.2969 1.5469-3.4219l0.375 0.1875 0.84374-0.09375c0.875 0.125 1.7813 0.20312 2.7188 0.23438s1.8437 0.20312 2.7187 0.51562c-1.125 2.0625-2.2187 4.1719-3.2812 6.3281s-2 4.3281-2.8125 6.5156l0.28124 0.75 0.28126 0.1875 0.84374-0.09375c0.875-1.875 1.7656-3.7656 2.6719-5.6719s1.8281-3.8281 2.7656-5.7656c0.25-0.4375 0.5-0.84375 0.75-1.2188s0.5625-0.71875 0.9375-1.0312l-0.0937-0.9375c-1.1875-0.6875-2.4531-1.0938-3.7969-1.2188s-2.6719-0.25-3.9844-0.375l0.65626-0.84375c0-0.25-0.0156-0.5-0.0469-0.75-0.0312-0.25-0.17188-0.4375-0.42188-0.5625zm65 0c-0.1875 0-0.39062 0.015625-0.60937 0.046875s-0.39063 0.10938-0.51563 0.23438c-1.125 1.3125-2.0312 2.7812-2.7187 4.4062s-1.4063 3.2188-2.1563 4.7812v0.60938c0 0.21875 0.0625 0.39062 0.1875 0.51562l0.28126 0.1875 0.84374-0.09375c0.625-1.125 1.2031-2.2656 1.7344-3.4219s1.0469-2.2969 1.5469-3.4219l0.375 0.1875 0.84374-0.09375c0.875 0.125 1.7813 0.20312 2.7188 0.23438s1.8437 0.20312 2.7187 0.51562c-1.125 2.0625-2.2187 4.1719-3.2812 6.3281s-2 4.3281-2.8125 6.5156l0.28124 0.75 0.28126 0.1875 0.84374-0.09375c0.875-1.875 1.7656-3.7656 2.6719-5.6719s1.8281-3.8281 2.7656-5.7656c0.25-0.4375 0.50001-0.84375 0.75-1.2188 0.25-0.375 0.56251-0.71875 0.9375-1.0312l-0.0937-0.9375c-1.1875-0.6875-2.4531-1.0938-3.7969-1.2188s-2.6719-0.25-3.9844-0.375l0.65626-0.84375c0-0.25-0.0156-0.5-0.0469-0.75-0.0312-0.25-0.17188-0.4375-0.42188-0.5625zm-91.062 0.046875c-0.28125 0-0.51562 0.0625-0.70312 0.1875l-0.28125 0.65625 0.28125 0.75 0.5625 0.375h0.51562c0.15625 0 0.29688-0.0625 0.42188-0.1875l4.5 0.46875-0.1875 1.9688c-0.4375 0.0625-0.85938 0.14062-1.2656 0.23438-0.40625 0.09375-0.76562 0.26562-1.0781 0.51562-0.0625 0.5625-0.25 1.0938-0.5625 1.5938s-0.5625 1.0312-0.75 1.5938l-0.46875 0.46875-0.28125 0.65625 0.375 1.0312-0.09375 0.28125c0.125 0.5625 0.26562 1.125 0.42188 1.6875s0.42188 1.0625 0.79688 1.5c0.5 0.3125 1.0156 0.5625 1.5469 0.75 0.53126 0.1875 1.0781 0.34375 1.6406 0.46875 0.8125 0 1.5938-0.125 2.3438-0.375l2.25-0.75c0.5625-0.375 1.0156-0.8125 1.3594-1.3125 0.34374-0.5 0.64062-1.0312 0.89062-1.5938 0.125-0.875 0.0469-1.6562-0.23438-2.3438-0.28125-0.6875-0.67187-1.3438-1.1719-1.9688-0.5625-0.625-1.1719-1.1562-1.8281-1.5938s-1.3594-0.71875-2.1094-0.84375l0.1875-1.9688 2.8125 0.1875c0.9375 0.0625 1.8438 0.21875 2.7188 0.46875l0.5625-0.1875c0.1875-0.0625 0.34378-0.1875 0.46875-0.375l-0.09375-0.84375c-2-0.625-4.0938-0.95312-6.2812-0.98438s-4.3438-0.20312-6.4688-0.51562zm122.86 0.14062c-0.25 0-0.46875 0.015625-0.65625 0.046875s-0.375 0.10938-0.5625 0.23438c-1.25 1.4375-2.3906 2.9219-3.4219 4.4531s-1.9531 3.1719-2.7656 4.9219v0.60938c0 0.21875 0.0625 0.39062 0.1875 0.51562l0.28125 0.1875h0.75c0.4375-0.4375 0.76563-0.92188 0.98438-1.4531s0.48437-1.0469 0.79687-1.5469l6.75 2.1562c-0.5625 1-1.0938 2.0156-1.5938 3.0469s-0.90625 2.1094-1.2188 3.2344h-0.1875l-0.28125 0.65625 0.28125 0.84375 0.28125 0.1875h0.5625c0.1875 0 0.34375-0.0625 0.46875-0.1875 1-2.4375 2.1719-4.8125 3.5156-7.125s2.4531-4.7188 3.3281-7.2188l-0.0937-1.3125c-1-0.5625-2.1094-0.875-3.3281-0.9375-1.2187-0.0625-2.4219-0.09375-3.6094-0.09375 0.0625-0.25 0.0625-0.48438 0-0.70312-0.06255-0.21875-0.2188-0.39062-0.4688-0.51562zm22.312 0.046875c-2.75 1.25-5.2969 2.8438-7.6406 4.7812s-4.7344 3.8125-7.1719 5.625l-0.28125 0.65625 0.28125 0.75 0.65625 0.28125c1.375-0.9375 2.7188-1.9375 4.0312-3l3.9375-3.1875 0.09375 0.09375-0.28125 7.0312v4.0312l0.28125 0.65625 0.28125 0.1875c0.25 0.0625 0.48438 0.0625 0.70312 0 0.21876-0.0625 0.39063-0.21875 0.51563-0.46875v-4.2188l0.09375-0.09375v-3.75c0.125-0.8125 0.1875-1.6406 0.1875-2.4844s0.0625-1.6719 0.1875-2.4844c0.75-0.625 1.5156-1.1719 2.2969-1.6406s1.5469-0.98438 2.2969-1.5469c0.0625-0.25 0.0625-0.48438 0-0.70312s-0.21875-0.39062-0.46875-0.51562zm-106.94 0.042969c-0.30468 0.017578-0.57421 0.097656-0.80859 0.23828l-0.1875 0.28125c0 0.1875 0.0156 0.39062 0.0469 0.60938 0.0312 0.21875 0.10937 0.39062 0.23437 0.51562 1.5625 0.125 3.125 0.34375 4.6875 0.65625s3.0938 0.65625 4.5938 1.0312c0.25 0.0625 0.48438 0.0625 0.70312 0 0.21876-0.0625 0.39063-0.21875 0.51563-0.46875l-0.09377-0.9375c-1.3125-0.5-2.6562-0.85938-4.0312-1.0781s-2.75-0.48438-4.125-0.79688c-0.375 0-0.78125-0.015625-1.2188-0.046875-0.10938-0.00781-0.21484-0.00977-0.31641-0.00391zm67.051 1.3164c-0.625 0.125-1.2813 0.1875-1.9688 0.1875s-1.3125 0.125-1.875 0.375l-0.28124 0.65625 0.28124 0.75 0.28126 0.1875 3.5625-0.375h4.2187c-1.375 2.1875-2.8594 4.2656-4.4531 6.2344s-3.0156 4.0781-4.2656 6.3281l0.28124 0.75 0.28126 0.1875h0.75c0.8125-1.1875 1.6094-2.3594 2.3906-3.5156s1.6406-2.2969 2.5781-3.4219l0.375 0.46875c1.125 1 2.1875 2.0781 3.1875 3.2344s2.0625 2.2031 3.1875 3.1406c0.25001 0.0625 0.48438 0.0625 0.70313 0s0.39063-0.21875 0.51563-0.46875v-0.75c-0.8125-0.6875-1.5781-1.4219-2.2969-2.2031s-1.4219-1.5781-2.1094-2.3906l-1.9687-1.7812-0.46876-0.75 3.9375-5.5312c0.0625-0.3125 0.0469-0.5625-0.0469-0.75-0.0937-0.1875-0.26563-0.375-0.51563-0.5625zm-51.406 0.046875-0.28124 0.1875-0.1875 0.28125 0.1875 1.0312 0.65624 0.28125h4.875c0.1875-0.0625 0.35938-0.125 0.51563-0.1875s0.29687-0.1875 0.42187-0.375c0.0625-0.25 0.0625-0.48438 0-0.70312s-0.21874-0.39062-0.46874-0.51562zm-128.98 0.32812-1.2188 0.375-0.1875 0.28125 0.1875 1.0312 0.65625 0.28125 0.65625-0.1875h9.0938l0.28125 2.3438c0.0625 1.4375 0.03125 2.875-0.09375 4.3125s-0.25 2.8438-0.375 4.2188l-4.2188-0.1875h-5.625l-0.5625 0.5625 0.1875 1.0312 0.28125 0.1875h5.7188l4.875 0.28125c0.375 0 0.71875-0.04687 1.0312-0.14062 0.3125-0.09375 0.5625-0.29688 0.75-0.60938l-0.09375-0.84375-0.5625-0.375 0.46875-5.0625c0-1.1875-0.01563-2.375-0.04687-3.5625-0.03125-1.1875-0.23438-2.3125-0.60938-3.375-0.1875-0.25-0.42188-0.375-0.70312-0.375s-0.54688-0.0625-0.79688-0.1875zm36 0-1.2188 0.375-0.1875 0.28125 0.1875 1.0312 0.65625 0.28125 0.65625-0.1875h9.0938l0.28125 2.3438c0.0625 1.4375 0.03125 2.875-0.09375 4.3125s-0.25 2.8438-0.375 4.2188l-4.2188-0.1875h-5.625l-0.5625 0.5625 0.1875 1.0312 0.28125 0.1875h5.7188l4.875 0.28125c0.375 0 0.71875-0.04687 1.0312-0.14062 0.3125-0.09375 0.5625-0.29688 0.75-0.60938l-0.09375-0.84375-0.5625-0.375 0.46875-5.0625c0-1.1875-0.01563-2.375-0.04687-3.5625-0.03125-1.1875-0.23438-2.3125-0.60938-3.375-0.1875-0.25-0.42188-0.375-0.70312-0.375s-0.54688-0.0625-0.79688-0.1875zm187.61 0.46875c-0.21874 0-0.39062 0.0625-0.51562 0.1875-0.25003 1.3125-0.40628 2.625-0.46875 3.9375-0.0625 1.3125-0.12503 2.625-0.1875 3.9375 0 0.875 0.0156 1.7656 0.0469 2.6719s0.20313 1.7656 0.51563 2.5781l0.28122 0.1875c0.25 0.0625 0.48438 0.0625 0.70312 0 0.21876-0.0625 0.39063-0.21875 0.51563-0.46875l-0.28125-3.0938c0.0625-1.4375 0.12503-2.8594 0.1875-4.2656 0.0625-1.4062 0.15625-2.7969 0.28125-4.1719v-0.84375c0-0.25-0.15625-0.46875-0.46875-0.65625zm-157.78 0.09375c-0.21875 0-0.39062 0.0625-0.51562 0.1875-0.3125 0.6875-0.51562 1.4219-0.60938 2.2031s-0.20312 1.5469-0.32812 2.2969h-1.5469c-0.53125 0-1.0156 0.125-1.4531 0.375l-0.28125 0.65625 0.28125 0.75 0.28125 0.1875h0.51562c0.15625 0 0.29688-0.0625 0.42188-0.1875h1.5l-1.125 7.2188c0 0.3125 0.01563 0.59375 0.04687 0.84375 0.03125 0.25 0.10938 0.5 0.23438 0.75l0.28125 0.1875 0.84375-0.09375c0.3125-1.375 0.5625-2.7656 0.75-4.1719 0.1875-1.4062 0.40626-2.7969 0.65626-4.1719l0.5625 0.1875c0.375 0.25 0.60938 0.54688 0.70312 0.89062s0.20312 0.70312 0.32812 1.0781c0.0625 1.0625 0.03125 2.0938-0.09375 3.0938s-0.34375 1.9688-0.65625 2.9062v0.60938c0 0.21875 0.0625 0.39062 0.1875 0.51562l0.28125 0.1875 0.84375-0.09375c0.5625-0.625 0.85938-1.375 0.89062-2.25 0.03125-0.875 0.14062-1.7188 0.32812-2.5312 0.0625-0.9375 0.04687-1.8594-0.04687-2.7656-0.093755-0.90625-0.42188-1.7031-0.98438-2.3906-0.3125-0.3125-0.64062-0.57812-0.98438-0.79688s-0.70312-0.35938-1.0781-0.42188c0.125-0.625 0.21875-1.2969 0.28125-2.0156s0.25-1.3594 0.5625-1.9219c0-0.25-0.01563-0.5-0.04687-0.75-0.03125-0.25-0.17188-0.4375-0.42188-0.5625zm165.14 0.1875-1.0312 0.1875c-0.25 0.625-0.375 1.2969-0.375 2.0156s-0.0313 1.4219-0.0937 2.1094c0 1.25 0.0625 2.5 0.1875 3.75s0.34375 2.4688 0.65625 3.6562l0.46875 0.28125c1.4375-0.5625 2.9062-0.98438 4.4062-1.2656s2.9375-0.73438 4.3125-1.3594c0.0625-0.25 0.0625-0.48438 0-0.70312-0.06255-0.21875-0.2188-0.39062-0.4688-0.51562-1.25 0.25-2.4688 0.5-3.6562 0.75s-2.375 0.5625-3.5625 0.9375h-0.1875l-0.375-3.9375c0-0.75 0.0156-1.5156 0.0469-2.2969s0.10938-1.5469 0.23438-2.2969c0.0625-0.3125 0.0469-0.5625-0.0469-0.75-0.0937-0.1875-0.26562-0.375-0.51562-0.5625zm-248.92 0.22852c-0.5332-0.0034179-1.0195 0.076172-1.457 0.24023l-0.28125 0.65625 0.28125 0.75c1.75 0.0625 3.5156 0.20312 5.2969 0.42188s3.5469 0.42188 5.2969 0.60938c0.1875-0.0625 0.35938-0.125 0.51562-0.1875s0.29688-0.1875 0.42188-0.375l-0.09375-0.84375c-1.25-0.5-2.5625-0.76562-3.9375-0.79688s-2.7188-0.17188-4.0312-0.42188c-0.5625 0-1.1562-0.015625-1.7812-0.046875-0.078125-0.0039062-0.1543-0.0053711-0.23047-0.0058594zm36 0c-0.5332-0.0034179-1.0195 0.076172-1.457 0.24023l-0.28125 0.65625 0.28125 0.75c1.75 0.0625 3.5156 0.20312 5.2969 0.42188s3.5469 0.42188 5.2969 0.60938c0.1875-0.0625 0.35938-0.125 0.51562-0.1875s0.29688-0.1875 0.42188-0.375l-0.09375-0.84375c-1.25-0.5-2.5625-0.76562-3.9375-0.79688s-2.7188-0.17188-4.0312-0.42188c-0.5625 0-1.1562-0.015625-1.7812-0.046875-0.07813-0.00391-0.1543-0.00537-0.23047-0.00586zm179.45 0.24023h3.75l2.25 0.28125c-0.1875 0.9375-0.5 1.8281-0.9375 2.6719s-0.875 1.6719-1.3125 2.4844v0.1875l-6.75-2.1562c0.25-0.5625 0.54688-1.1094 0.89063-1.6406s0.73437-1.0469 1.1719-1.5469zm-46.656 0.89062-1.0312 0.1875c-0.25 0.375-0.35937 0.79688-0.32813 1.2656 0.0313 0.46875 0.0156 0.92188-0.0469 1.3594v4.5l0.28128 0.65625 0.28125 0.1875c0.25 0.0625 0.48438 0.0625 0.70313 0s0.39062-0.21875 0.51562-0.46875v-4.875l0.0937-0.09375c-0.0625-0.5-0.0625-1 0-1.5s-0.0937-0.90625-0.46875-1.2188zm-3.1875 0.375-1.0312 0.1875c-0.1875 0.25-0.28125 0.54688-0.28125 0.89062s-0.0313 0.67188-0.0937 0.98438v4.6875l-0.0937 0.09375 0.28125 0.9375 0.28125 0.1875 0.84375-0.09375c0.25-0.125 0.375-0.29688 0.375-0.51562s0.0313-0.42188 0.0937-0.60938v-4.6875l0.0937-0.09375c0-0.375 0.0156-0.75 0.0469-1.125s-0.14062-0.65625-0.51562-0.84375zm-33.531 0.75c-0.4375 0.125-0.875 0.1875-1.3125 0.1875s-0.84375 0.0625-1.2188 0.1875l-0.28125 0.375v0.84375l0.5625 0.5625c0.375 0 0.75-0.0625 1.125-0.1875s0.75-0.1875 1.125-0.1875h7.4062l1.0312 0.09375-4.5 10.219 0.28125 0.75 0.28125 0.1875 0.84375-0.09375c1-1.75 1.9062-3.5625 2.7188-5.4375s1.6562-3.7188 2.5312-5.5312l-0.0937-1.125c-0.4375-0.375-0.92187-0.59375-1.4531-0.65625-0.53124-0.0625-1.0781-0.125-1.6406-0.1875zm-39.812 0.5625c-0.1875 0-0.39062 0.015625-0.60938 0.046875s-0.39062 0.10938-0.51562 0.23438c-0.5625 1.5-0.95312 3.0156-1.1719 4.5469s-0.35938 3.1094-0.42188 4.7344c-0.0625 0.4375-0.03125 0.8125 0.09375 1.125s0.3125 0.625 0.5625 0.9375c0.375 0.25 0.78125 0.4375 1.2188 0.5625s0.90625 0.21875 1.4062 0.28125c2.3125 0 4.5938-0.07813 6.8438-0.23438 2.25-0.15625 4.5-0.42188 6.75-0.79688l0.46875 0.9375 0.28125 0.1875c0.25 0.0625 0.48437 0.0625 0.70312 0s0.39063-0.21875 0.51563-0.46875c-0.0625-0.5625-0.10936-1.1406-0.14063-1.7344-0.0313-0.59375-0.0781-1.1719-0.14062-1.7344 0-0.75 0.0156-1.5 0.0469-2.25 0.0312-0.75 0.10937-1.4688 0.23437-2.1562 0-0.375 0.0156-0.75 0.0469-1.125 0.0312-0.375-0.14062-0.65625-0.51562-0.84375l-1.0312 0.1875c-0.18753 0.5625-0.31253 1.1562-0.375 1.7812-0.0625 0.625-0.12503 1.25-0.1875 1.875l0.0937 2.625-0.0937 0.84375c-1.875 0.375-3.7656 0.64062-5.6719 0.79688-1.9063 0.15625-3.8281 0.26562-5.7656 0.32812l-3.0938-0.1875-0.46875-0.46875c0-1.5 0.10938-3 0.32812-4.5s0.57812-2.9375 1.0781-4.3125c0.0625-0.25 0.0625-0.48438 0-0.70312s-0.21875-0.39062-0.46875-0.51562zm83.094 0.1875-1.0312 0.1875c-0.9375 1.8125-1.7969 3.6562-2.5781 5.5312-0.78124 1.875-1.6094 3.75-2.4844 5.625l0.1875 1.0312 0.28125 0.1875 0.84375-0.09375c1-1.8125 1.8906-3.6562 2.6719-5.5312 0.78126-1.875 1.6406-3.75 2.5781-5.625 0-0.25-0.0156-0.5-0.0469-0.75-0.0312-0.25-0.17188-0.4375-0.42188-0.5625zm-75.688 0.09375 0.65625 0.09375c0.5625 0.25 1.1094 0.625 1.6406 1.125 0.53124 0.5 0.92187 1.0312 1.1719 1.5938l-0.0937 0.09375-3.375-0.375-0.0937-0.375zm51.953 0c-0.9375 0.0625-1.8906 0.15625-2.8594 0.28125s-1.9219 0.28125-2.8594 0.46875l-0.1875 0.28125 0.1875 1.0312 0.65624 0.28125c0.9375-0.125 1.8906-0.23438 2.8594-0.32812s1.8594-0.35938 2.6719-0.79688c0.0625-0.25 0.0625-0.48438 0-0.70312s-0.21876-0.39062-0.46876-0.51562zm-54.109 0.375 0.375 0.09375-0.0937 0.09375 0.0937 1.6875v0.28125l-1.5-0.09375zm-25.219 0.60938 0.46875 0.09375-0.09375 0.09375v1.0312l-0.375 0.09375h-0.46875c0-0.25 0.0625-0.46875 0.1875-0.65625s0.21875-0.40625 0.28125-0.65625zm89.359 0.046875c-2.375 1.0625-4.7188 2.2656-7.0313 3.6094s-4.5312 2.8281-6.6562 4.4531l-0.28126 0.65625 0.28126 0.84375 0.28124 0.1875h0.75l0.5625-0.65625c2-1.5 4.0781-2.8594 6.2344-4.0781s4.2656-2.4844 6.3281-3.7969c0.0625-0.25 0.0625-0.48438 0-0.70312s-0.21874-0.39062-0.46874-0.51562zm-87.109 0.14062 1.2188 0.75-0.09375 0.09375h-1.2188zm1.875 2.5312h0.375l-0.65625 0.84375-1.6875 0.75-0.09375-0.09375v-1.4062zm-4.0312 0.28125h0.1875v1.2188l-0.28125-0.09375-0.375-0.65625v-0.28125zm23.531 0.23438 2.0625 0.09375 0.1875 2.25v0.5625c-0.3125-0.0625-0.59375-0.14062-0.84375-0.23438s-0.5-0.23438-0.75-0.42188l-0.65625-1.5938zm3.8438 0.09375 3.5625 0.46875-1.0312 1.4062-2.0625 0.84375h-0.28125l-0.1875-1.7812zm-101.97 2.9531-0.5625 0.5625v0.75l0.5625 0.5625 0.84375-0.09375 2.7188 0.1875 0.75-0.09375c1.3125 0 2.625 0.03125 3.9375 0.09375s2.625 0.15625 3.9375 0.28125h1.5c0.5 0 0.90625-0.1875 1.2188-0.5625l-0.09375-0.84375c-1.125-0.25-2.3125-0.42188-3.5625-0.51562s-2.4688-0.17188-3.6562-0.23438l-3.375 0.09375-2.3438-0.1875zm36 0-0.5625 0.5625v0.75l0.5625 0.5625 0.84375-0.09375 2.7188 0.1875 0.75-0.09375c1.3125 0 2.625 0.03125 3.9375 0.09375s2.625 0.15625 3.9375 0.28125h1.5c0.5 0 0.90625-0.1875 1.2188-0.5625l-0.09375-0.84375c-1.125-0.25-2.3125-0.42188-3.5625-0.51562s-2.4688-0.17188-3.6562-0.23438l-3.375 0.09375-2.3438-0.1875z" fill="#FFFFFF" />
</svg>
